<svg xmlns="http://www.w3.org/2000/svg" viewBox="0 0 468.28 127.05"><defs><style>.cls-1{fill:#0147b2;}.cls-2{fill:#0248b3;}.cls-3{fill:#0349b3;}.cls-4{fill:#044ab4;}.cls-5{fill:#0449b3;}.cls-6{fill:#054ab4;}.cls-7{fill:#064bb4;}.cls-8{fill:#074cb4;}.cls-9{fill:#094db5;}.cls-10{fill:#0a4eb5;}.cls-11{fill:#95fe0a;}.cls-12{fill:#3eaff7;}.cls-13{fill:#215ab9;}.cls-14{fill:#1b56b8;}.cls-15{fill:#0f51b7;}.cls-16{fill:#285eba;}.cls-17{fill:#1452b6;}.cls-18{fill:#1251b6;}.cls-19{fill:#1955b7;}.cls-20{fill:#2c61bb;}.cls-21{fill:#fefefe;}</style></defs><title>Asset 1</title><g id="Layer_2" data-name="Layer 2"><g id="Layer_1-2" data-name="Layer 1"><path class="cls-1" d="M100.84,25c1.31-1.11,2.69-2.14,3.91-3.34,4.45-4.38,9.65-4.46,15.12-2.65a19.31,19.31,0,0,1,8.07,5.72h-21v16h28.76v-2.3l.32-.09,1.83,4.87H107V59.27h42.38V50.46a25,25,0,0,1,5.9,11.33h-40V77.87h38.65c-.44,3.82-.85,4.2-4.35,4.2H128.73V96.9h-2q-53.53-.18-107.06-.39a4.81,4.81,0,0,1-2.88-1.11,49.46,49.46,0,0,1-12-15.53C-.4,69.1,1.76,59.37,11.13,52a84.76,84.76,0,0,1,9.36-6,2.41,2.41,0,0,0,1.45-2.16,35.16,35.16,0,0,1,3.14-13.13c3.41-6.92,9.07-10.43,16.68-10.95,1.3-.08,2.61,0,3.92,0,3.41,0,6.06.43,7.32,4.64,1.4,4.69,5.26,7.77,9.78,9.78a3.18,3.18,0,0,0,2.1.23,45,45,0,0,1-4.66-4.6A29.82,29.82,0,0,1,56.1,23a8.71,8.71,0,0,1-.19-5.39C58.55,9.13,70.39.36,79.28,0A22,22,0,0,1,95.55,6.35c3.39,3.16,6.33,6.81,9.46,10.22l-4.45,8.1-.2.36Z"/><path class="cls-2" d="M458.66,40V26.92l9.62-.88V61.82c-2.5,0-5.15.1-7.77-.08-.49,0-.9-1.22-1.47-2.06-3.11,2.69-6.91,3.22-11,2.08A10.57,10.57,0,0,1,442,57.13c-3.38-5.19-2.45-13.27,2-17.23C448.1,36.23,454.06,36.2,458.66,40Zm-4.75,14.38a4.93,4.93,0,0,0,.29-9.86,4.7,4.7,0,0,0-4.82,4.78A4.81,4.81,0,0,0,453.91,54.42Z"/><path class="cls-3" d="M361,49.87c1.31,1.87,2.75,3.77,4,5.81.25.43-.18,1.57-.65,2.07-3.69,3.94-8.41,5.16-13.65,4.93a17.28,17.28,0,0,1-16.44-14.87c-1.21-10,3.67-18.39,12.26-20.7,6.13-1.64,12-.83,17.18,3.13,1.5,1.15,2,2.31.77,4-.72,1-1.25,2.12-1.9,3.17-1.47,2.33-1.49,2.34-3.61.64-2.41-1.93-5.1-3-8.22-2.37-5,1-7.74,6.48-6.08,12.06,1.45,4.86,6.28,7.18,11.19,5.2A42.06,42.06,0,0,0,361,49.87Z"/><path class="cls-3" d="M244.6,49.87c1.28,1.84,2.71,3.68,3.86,5.68a2.56,2.56,0,0,1-.59,2.23c-3.76,4-8.57,5.19-13.87,4.88a17.21,17.21,0,0,1-16.21-15.1c-1.09-9.89,3.8-18.22,12.33-20.46,6.29-1.65,12.26-.82,17.48,3.45,1.22,1,1.51,2,.61,3.34s-1.68,2.68-2.44,4.06-1.56,1.63-2.84.46c-2.44-2.24-5.31-3.44-8.68-2.75-5,1-7.72,6.54-6,12.1,1.48,4.85,6.3,7.13,11.22,5.12A41.64,41.64,0,0,0,244.6,49.87Z"/><path class="cls-3" d="M426.88,59.15A16.5,16.5,0,0,1,424,60.71a22.39,22.39,0,0,1-6.08,1.47c-4,.07-6.51-2.11-7.19-6a44,44,0,0,1,.15-16c.26-1.4.9-2,2.36-1.88a53.23,53.23,0,0,0,5.36,0c1.37-.05,1.67.39,1.59,1.81-.24,3.83-.33,7.67-.24,11.5.05,2.49,1.31,3.63,3.33,3.58a4.13,4.13,0,0,0,3.91-4c.07-3.43.07-6.87.09-10.3,0-.81,0-1.62,0-2.6,3,0,5.74-.06,8.47.06.42,0,1.11.89,1.15,1.4.11,1.7,0,3.43,0,5.14,0,5.08,0,10.16.07,15.23,0,1.49-.4,2.19-1.94,2.13-1.1,0-2.2.08-3.3.08C428.07,62.41,428.07,62.4,426.88,59.15Z"/><path class="cls-3" d="M394,62.28c-7.67,0-13.08-5.1-13.1-12.33,0-7.73,5.25-12.86,13.22-12.83,7.79,0,13.09,5.08,13.09,12.53S401.9,62.28,394,62.28Zm4.6-12.48A4.56,4.56,0,0,0,394.1,45a4.73,4.73,0,0,0-.2,9.45A4.53,4.53,0,0,0,398.59,49.8Z"/><path class="cls-4" d="M318.55,62.28c-7.77,0-13.22-5.15-13.17-12.47.05-7.65,5.28-12.7,13.15-12.69s13.14,5,13.16,12.46C331.72,57.17,326.45,62.27,318.55,62.28Zm3.95-15.44c-2.84-2.87-5.2-3-7.49-.47a30.29,30.29,0,0,1-4.48,4c-1,.71-2,1.46-1.37,2.57a3.47,3.47,0,0,0,2.55,1.44c4.45.14,8.91.09,13.37,0a3.83,3.83,0,0,0,4.14-4.21,3.88,3.88,0,0,0-4.33-3.85A14.92,14.92,0,0,0,322.5,46.84Z"/><path class="cls-2" d="M367.52,27.33h10.42c-.13,2.08-.35,4-.37,6-.09,8.79-.18,17.58-.12,26.37,0,1.75-.49,2.35-2.15,2.29-1.85-.07-3.71-.07-5.56,0-1.45,0-1.85-.59-1.83-2,.08-7.07.13-14.15.07-21.23C368,35,367.69,31.26,367.52,27.33Z"/><path class="cls-5" d="M275.12,40c2.4-.72,4.58-1.47,6.82-2,1.39-.33,1.95.37,1.78,1.87a53.54,53.54,0,0,0-.25,5.94c0,1.18-.26,1.85-1.59,1.74-7.37-.61-6,1.55-6,6.29,0,2.59,0,5.18,0,8-2.79,0-5.57.06-8.34-.08-.36,0-.93-1.05-.95-1.63-.08-3.29.08-6.59,0-9.87-.13-3.74-.47-7.48-.73-11.45l8.68-1.31C274.73,38.48,275,39.32,275.12,40Z"/><path class="cls-5" d="M296.07,61.87c-2.77,0-5.49.08-8.2-.08-.41,0-1.06-1.11-1.07-1.72-.1-4,.07-8-.07-11.92-.11-3.06-.52-6.1-.82-9.32l8.82-1.3c.25,1,.46,1.85.61,2.47,2.28-.7,4.46-1.47,6.68-2,1.45-.36,2.11.29,1.92,1.93a52.62,52.62,0,0,0-.25,6.15c0,1.07-.41,1.53-1.46,1.45h-.41c-5.84,0-5.83,0-5.76,5.77C296.09,56.06,296.07,58.85,296.07,61.87Z"/><path class="cls-6" d="M261.28,61.75c-3.06,0-5.86.07-8.63-.08-.35,0-.88-1.23-.89-1.89-.09-5.7-.07-11.4-.13-17.1,0-1.29-.21-2.58-.35-4.06h10Z"/><path class="cls-7" d="M215.69,87.52h3.09c1.37,5,5.63,6.08,10.27,4.79A3.48,3.48,0,0,0,232,89c.06-1.88-1.32-2.65-2.81-3.09-2.62-.8-5.39-1.18-7.89-2.23a8.6,8.6,0,0,1-3.87-3.36c-1.33-2.23-.14-5.35,2.34-6.7a11.63,11.63,0,0,1,11.79.13c1.73,1,2.44,2.42,2.77,4.9h-2.81a7,7,0,0,0-9.88-2.7,3.71,3.71,0,0,0-1.48,2.65,3.14,3.14,0,0,0,1.76,2.2c2,.76,4.1,1.09,6.13,1.7a19,19,0,0,1,4.21,1.58,5.6,5.6,0,0,1,1.31,8.82c-3.62,4.13-12.94,3.68-16-.87A24.2,24.2,0,0,1,215.69,87.52Z"/><path class="cls-6" d="M335.64,90.4l2.59-.48c1.85,2.7,4.29,3.65,7,2.54.71-.3,1.18-1.16,1.76-1.77-.6-.54-1.11-1.33-1.82-1.58-1.93-.69-3.95-1.09-5.91-1.71a4.07,4.07,0,0,1-3.11-4.12,4.35,4.35,0,0,1,3-4.27,8.38,8.38,0,0,1,7.56.3c1.23.7,2,2.19,3.35,3.74l-3.21.66c-1.72-2.4-3.89-3.16-6.41-2.14-.55.23-1.38,1-1.3,1.3a2.41,2.41,0,0,0,1.36,1.5c2.14.71,4.39,1.1,6.52,1.84a4.3,4.3,0,0,1,2.08,6.86c-2,2.67-5,2.87-8,2.46C338.13,95.14,336.31,93.53,335.64,90.4Z"/><path class="cls-8" d="M299,87.08c0-5.39,3-8.69,8-8.73s8.22,3.3,8.22,8.51c0,5.52-3,8.8-8.11,8.82S299,92.44,299,87.08Zm2.95,0c0,3.51,2,5.68,5.11,5.68s5.18-2.28,5.16-5.87-2-5.67-5.14-5.68S301.93,83.46,302,87.11Z"/><path class="cls-8" d="M254.13,87c0,5.48-3.1,8.73-8.22,8.7-5,0-8-3.32-8-8.72S241,78.35,246,78.35,254.16,81.73,254.13,87Zm-13.24,0c0,3.54,1.89,5.73,5,5.78s5.24-2.19,5.25-5.77-2-5.82-5.24-5.77S240.9,83.47,240.89,87Z"/><path class="cls-9" d="M321.23,95.22h-2.94V78.9h2.45l.32,1.57a3.2,3.2,0,0,0,.69-.39,6.68,6.68,0,0,1,5.51-1.71c3.11.29,4.84,1.92,5,5,.14,3.9,0,7.8,0,11.8h-3c0-3.11,0-6.24,0-9.37s-.93-4.46-3.42-4.54c-2.74-.09-4.46,1.41-4.6,4.36C321.11,88.75,321.23,91.9,321.23,95.22Z"/><path class="cls-5" d="M276,78.81h2.82V95.13h-2.38c0-.68-.07-1.34-.1-2a20.22,20.22,0,0,1-3.77,2.22,5.52,5.52,0,0,1-7.63-5.2c-.13-3,0-6-.05-9.06V78.92h3c0,3.13,0,6.27,0,9.42s1.08,4.45,3.57,4.45c2.72,0,4.44-1.66,4.5-4.53C276,85.18,276,82.1,276,78.81Z"/><path class="cls-10" d="M141.76,84.76v10.7H131.38V84.76Z"/><path class="cls-10" d="M119.87,27.4V38.18h-10.4V27.4Z"/><path class="cls-10" d="M122.66,27.4h10.41V38.11H122.66Z"/><path class="cls-10" d="M153.22,38.61H143V27.87h10.27Z"/><path class="cls-10" d="M145,64.49h10.36V75.28H145Z"/><path class="cls-11" d="M156.54,27.77h10.32V38.56H156.54Z"/><path class="cls-12" d="M166.88,52.22H156.52V41.43h10.36Z"/><path class="cls-11" d="M144.93,95.48V84.74h10.39V95.48Z"/><path class="cls-10" d="M119.85,56.75H109.48V46h10.37Z"/><path class="cls-12" d="M122.65,56.69V46H133V56.69Z"/><path class="cls-10" d="M146.71,46V56.71H136.32V46Z"/><path class="cls-10" d="M117.71,75.23V64.58h10.41V75.23Z"/><path class="cls-12" d="M131.39,64.49h10.28V75.24H131.39Z"/><path class="cls-11" d="M162.28,75.3V64.51h10.39V75.3Z"/><path class="cls-12" d="M175.88,88.85V78.17h10.35V88.85Z"/><path class="cls-10" d="M186.23,75.31H176V64.57h10.27Z"/><path class="cls-11" d="M189.56,69.84h10.3V80.61h-10.3Z"/><path class="cls-9" d="M283.42,81.77l-1.81-.22V79l2-.38c.21-2.07-.69-4.9,3-5.22v5.3l2.87.18v2.81h-2.78c0,3.32-.15,6.48.11,9.6.06.76,1.48,1.41,2.27,2.11l.42-.39c.15.72.29,1.44.43,2.14-3.68,1.59-6.13.17-6.23-3.59-.09-3.16-.06-6.32-.09-9.48C283.6,82,283.53,81.94,283.42,81.77Z"/><path class="cls-6" d="M256.68,36.71c-3.15,0-5.27-1.7-5.32-4.25S253.6,28,256.57,28s5.09,1.88,5.07,4.49S259.93,36.7,256.68,36.71Z"/><path class="cls-13" d="M71.25,109.81a5.44,5.44,0,0,0-.66-1.13c-.46-.42-1-.78-1.46-1.17-.34.54-1,1.06-1,1.6-.1,2.46,0,4.93,0,7.49l3.2.39,0,.6L68,118.1V127l-.62,0c-.06-1-.15-2-.17-3,0-1.44-.09-2.88,0-4.32.12-1.62-.41-2.27-2.1-1.89a12.59,12.59,0,0,1-2.58,0V127c-1.53-3.12.36-6.73-1.63-9.59a10.77,10.77,0,0,0,.83-2.54c.12-2.12,0-4.25.09-6.37.08-1.37.86-2.47,2.41-2.1s2,1.43,1.15,3.3a2,2,0,0,0-.24-.77c-.45-.5-1-1-1.45-1.42-.36.58-1,1.15-1,1.75-.12,2.39,0,4.79,0,7.34,1,.12,2,.25,3,.32s1.62-.28,1.58-1.51a61.53,61.53,0,0,1,.06-6.79c.09-1.26.72-2.54,2.34-2.24S71.67,107.75,71.25,109.81Z"/><path class="cls-6" d="M257.58,72.63h2.68V95.14h-2.68Z"/><path class="cls-14" d="M2.08,125.27C1,123.6,3.37,120.76,0,119.54c2.67-1,1.77-3.11,1.82-4.89.08-2.66,0-5.33,0-8H12.23l0,.58H2.9v11.53c3.15.38,6.42-.24,9.57.33l0,.83H2.87v4.7h9.38l0,.66Z"/><path class="cls-15" d="M295.5,95.21h-2.77V78.87h2.77Z"/><path class="cls-13" d="M132.41,118.15a5.19,5.19,0,0,0-.71,1.54c-.11,1.17,0,2.35,0,3.52l-.57,0-.47-2.2c-.54.64-.86,1.32-1.38,1.58-.73.37-1.83.81-2.38.51a2.67,2.67,0,0,1-.91-2.25c.34-2.68,2.32-3.84,5-4.42v-10l.52-.06a10.51,10.51,0,0,1,.21,1.35c0,2.75,0,5.5,0,8.24a6.14,6.14,0,0,0,.71,1.87A1.13,1.13,0,0,1,132.41,118.15Zm-1.45,0c-2.24-.14-3.52.76-4,2.49a1.54,1.54,0,0,0,.36,1.38,1.41,1.41,0,0,0,1.39-.19C129.52,120.67,130.21,119.39,131,118.15Z"/><path class="cls-16" d="M158.48,106.52v10.11c3.87.09,5.63,2.64,4,5.42a2.65,2.65,0,0,1-3.18,1.24,2.15,2.15,0,0,1-1.64-2.46c.06-4.31,0-8.62,0-12.93a10.9,10.9,0,0,1,.21-1.49Zm4.45,13.3c-1.32-.94-2.05-1.87-2.87-1.95-1.59-.15-1.59,1.15-1.63,2.4s.5,2.21,1.64,2C161,122,161.63,121,162.93,119.82Z"/><path class="cls-17" d="M21.19,106.55v10.19c3.56-.16,4.69,2.21,2.79,6.45a17.92,17.92,0,0,0-.06-3.44c-.13-.7-.75-1.75-1.28-1.83-1.21-.19-1.53.8-1.48,1.91s0,2.27,0,3.4h-.84V106.44Z"/><path class="cls-13" d="M111.76,118.21l-2.08-.86c3.43-.86,1.35-3.7,2.77-5.32v4.52l2.42.5,0,.54-2.48.51.69,4,1.93-.68.46.28c-.6.54-1.17,1.45-1.82,1.52a2.28,2.28,0,0,1-1.83-1.27A16,16,0,0,1,111.76,118.21Z"/><path class="cls-18" d="M31.08,123.22l-.4-2c-.48.51-.8,1.09-1.28,1.31-.81.36-2,.91-2.53.6a2.57,2.57,0,0,1-.81-2.41,9,9,0,0,1,2.44-3.34,3.4,3.4,0,0,1,2.66-.52c.34.08.5,1.48.56,2.29.09,1.36,0,2.72,0,4.08Zm0-5.4A4.11,4.11,0,0,0,27,120.45c-.19.43.17,1.1.27,1.67.54-.12,1.33-.06,1.58-.4A44.4,44.4,0,0,0,31.11,117.82Z"/><path class="cls-19" d="M152.16,120.47h-4c.84,2.14,1,2.17,3.88.93-.33,1.57-1.12,2.17-2.59,2s-2.57-1.91-2.23-4c.25-1.55,1-2.76,2.79-2.68C151.54,116.73,152.35,118.11,152.16,120.47Zm-.87-1.1.27-.53c-.64-.39-1.29-1.08-1.93-1.07s-1,.82-2,1.6Z"/><path class="cls-17" d="M188.5,121.2c-.57,2-1.75,2.39-3.21,2.09s-2.23-2.23-1.81-4.28c.29-1.4,1.05-2.5,2.61-2.32,1.95.21,2.43,1.66,2.41,3.64h-4.1C185,122.65,185.41,122.74,188.5,121.2Zm-4.25-2.33.28.45h3l.19-.51c-.62-.39-1.24-1-1.87-1.07S184.79,118.46,184.25,118.87Z"/><path class="cls-16" d="M177.71,123.12c0-.59-.11-1.19-.11-1.78,0-1.49,0-3,0-4.5a7.13,7.13,0,0,0,1.68.12c2.22-.45,2.88,0,3,2.19.06,1.33,0,2.67,0,4l-.84,0a28.42,28.42,0,0,0-.15-3.34,8.24,8.24,0,0,0-.86-2c-.62.67-1.54,1.26-1.79,2a11.69,11.69,0,0,0-.07,3.3Z"/><path class="cls-17" d="M49.83,120.44h-4c.74,2.23,1.06,2.3,3.82,1a2,2,0,0,1-2.5,2c-1.56-.18-2.42-1.6-2.28-3.77.12-1.83,1.26-3,2.75-2.94S49.94,118,49.83,120.44Zm-4.17-1.55.31.49h3l.25-.49c-.58-.41-1.16-1.16-1.74-1.15S46.26,118.48,45.66,118.89Z"/><path class="cls-19" d="M89.27,123.16V117a9.3,9.3,0,0,0,1.75-.11c1.84-.45,2.59,0,2.66,1.94.06,1.46,0,2.94,0,4.41h-.81a21.34,21.34,0,0,0,0-3.3,7.85,7.85,0,0,0-1-2c-.61.71-1.5,1.33-1.76,2.16a10.71,10.71,0,0,0-.08,3.16Z"/><path class="cls-14" d="M14.23,123.23v-6.44a3.33,3.33,0,0,0,1,.37c.95,0,2.41-.41,2.72,0a6.88,6.88,0,0,1,.76,3.26,18.33,18.33,0,0,1-.12,2.76h-.78a23.8,23.8,0,0,0,0-3.38,7,7,0,0,0-.92-1.94c-.64.68-1.59,1.25-1.85,2a11.32,11.32,0,0,0-.08,3.3Z"/><path class="cls-18" d="M59.94,121.29c-.64,1.73-1.67,2.28-3.16,2s-2.38-2.1-2-4.17c.29-1.5,1-2.57,2.74-2.47,1.51.09,2.32,1.5,2.12,3.69H55.81C56.23,122.54,56.52,122.61,59.94,121.29Zm-1.12-1.91.28-.41c-.56-.44-1.12-1.23-1.67-1.23s-1.28.72-1.91,1.13l.27.51Z"/><path class="cls-15" d="M103.59,127.05l.89-3.71c-3.42,0-4.38-2.16-3.16-6.54l.57,0a25,25,0,0,0,0,3.57,6.39,6.39,0,0,0,1.08,1.9c.43-.64,1.1-1.24,1.22-1.93a19.76,19.76,0,0,0,.06-3.53l.69,0c.17,1.72.42,3.43.5,5.15,0,1.07-.23,2.14-.29,3.22S104.73,127,103.59,127.05Z"/><path class="cls-17" d="M87.79,120.41h-4c.72,2.26,1.11,2.35,3.79,1-.11,1.45-.76,2-2.23,2-1.71,0-2.65-1.44-2.52-3.73.11-1.86,1.21-3.07,2.69-3S87.86,118,87.79,120.41Zm-.9-1,.27-.46c-.57-.43-1.17-1.22-1.71-1.18s-1.24.79-1.85,1.24l.32.4Z"/><path class="cls-20" d="M37.31,123.2,37,118.07c-1.37,0-1.37,0-3.34,5.17V117a6.13,6.13,0,0,0,1.48,0c2.1-.54,2.75-.15,2.91,2,.1,1.39,0,2.8,0,4.2Z"/><path class="cls-14" d="M132.41,118.15a1.13,1.13,0,0,0,0-.26c.57-1,1.21-1.67,2.42-.74a1.25,1.25,0,0,0,1.1,0c1-.59,1.92-.69,2.44.42s.17,2.2-1.43,2.92l.74-2.28c-1.4-.08-1.4-.08-3.31,5v-5.1Z"/><path class="cls-20" d="M168.71,116.8a30.82,30.82,0,0,1-.46,5.11,2.7,2.7,0,0,1-2.12,1.37,2.44,2.44,0,0,1-1.85-1.47,31.73,31.73,0,0,1-.34-5l.85,0c.05,1,.09,2,.15,3.07s-.18,2.3,1.32,2.33,1.37-1.26,1.41-2.27,0-2.11,0-3.16Z"/><path class="cls-14" d="M99.83,117.67c-1.4.4-2.71.51-3.65,1.17a2.64,2.64,0,0,0,.14,2.49c.86.61,2.15.62,3.62,1a6.14,6.14,0,0,1-2.08,1c-1.73.17-2.59-1-3-2.55a3.38,3.38,0,0,1,2.1-4C98.27,116.45,99.39,116.64,99.83,117.67Z"/><path class="cls-14" d="M44.16,117.69c-1.36.36-2.71.42-3.6,1.09-.43.32-.35,2.24.15,2.65.74.62,2.06.56,3.42.84a5,5,0,0,1-1.68,1c-1.72.33-2.67-.73-3.14-2.26a3.33,3.33,0,0,1,1.75-4.14C42.39,116.37,43.53,116.61,44.16,117.69Z"/><path class="cls-13" d="M79.39,117.69c-1.43.37-2.75.44-3.71,1.07a2.65,2.65,0,0,0,0,2.49c.93.64,2.24.7,3.85,1.12a8.71,8.71,0,0,1-2.57,1c-1.64,0-2.4-1.22-2.63-2.68a3.23,3.23,0,0,1,1.83-3.77A2.44,2.44,0,0,1,79.39,117.69Z"/><path class="cls-19" d="M121.33,120.18c-.07,1.91-1.24,3.25-2.78,3.19S116,121.77,116,120s1.2-3.3,2.7-3.3S121.4,118.21,121.33,120.18Zm-.16,0-2.42-2.44c-.65.75-1.79,1.49-1.81,2.26s1.09,1.57,1.7,2.35Z"/><path class="cls-13" d="M143.72,123.31l-2.51-6.38.68-.29c.68,1.48,1.35,3,2.17,4.75l2.14-4.75.71.31-2.53,6.43Z"/><path class="cls-13" d="M189.57,122.28l2-.3c-2.22-2.76-2.53-4-1.21-4.9a1.81,1.81,0,0,1,2.87.59c-.41.13-.64.19-.86.27l-1.85.73a9.31,9.31,0,0,1,1,1.51,24.11,24.11,0,0,1,.8,2.4c-.77.19-1.54.39-2.31.53C190,123.12,189.81,122.7,189.57,122.28Z"/><path class="cls-13" d="M197.76,117.68l-.7.25-2,.78a6.65,6.65,0,0,1,1.08,1.49,4.66,4.66,0,0,1,.53,2.6c-.28.9-1.42.7-2.5-.45l2.23-.41c-1.72-1.46-3.67-2.77-1.46-4.84C195.79,116.28,196.86,116.38,197.76,117.68Z"/><path class="cls-13" d="M170.19,122.29l2.18-.27c-1.48-1.54-3.76-2.81-1.39-5,.88-.79,1.69-.53,2.7.76a3.32,3.32,0,0,0-1,.06c-.56.23-1.09.55-1.63.83a9.83,9.83,0,0,1,.89,1.35c.37.82.65,1.68,1,2.53-.77.18-1.53.38-2.31.52C170.55,123.11,170.4,122.69,170.19,122.29Z"/><path class="cls-15" d="M292.75,72.62h2.72v2.74h-2.72Z"/><path class="cls-20" d="M80.79,123.19v-6.56C81.78,117.92,81.88,121.38,80.79,123.19Z"/><path class="cls-8" d="M175.11,123.16v-6.35h.41v6.34Z"/><path class="cls-9" d="M72.87,116.86v6.31h-.44v-6.32Z"/><path class="cls-9" d="M139.67,123.14v-6.31h.44v6.33Z"/><path class="cls-21" d="M100.84,25l-.48,0,.2-.36Z"/></g></g></svg>