<svg xmlns="http://www.w3.org/2000/svg" viewBox="0 0 466.25 106.52"><defs><style>.cls-1{fill:#0147b2;}.cls-2{fill:#0248b3;}.cls-3{fill:#0349b3;}.cls-4{fill:#044ab4;}.cls-5{fill:#0449b3;}.cls-6{fill:#054ab4;}.cls-7{fill:#064bb4;}.cls-8{fill:#074cb4;}.cls-9{fill:#094db5;}.cls-10{fill:#0a4eb5;}.cls-11{fill:#95fe0a;}.cls-12{fill:#3eaff7;}.cls-13{fill:#0f51b7;}.cls-14{fill:#285eba;}.cls-15{fill:#fefefe;}</style></defs><title>logo_no_slogan</title><g id="Layer_2" data-name="Layer 2"><g id="Layer_1-2" data-name="Layer 1"><path class="cls-1" d="M98.81,25c1.31-1.11,2.7-2.14,3.92-3.34,4.44-4.38,9.65-4.46,15.11-2.65a19.4,19.4,0,0,1,8.08,5.72h-21v16h28.76v-2.3l.33-.09,1.83,4.87H104.93V59.27H147.3V50.46a24.84,24.84,0,0,1,5.9,11.33h-40V77.87h38.66c-.45,3.82-.86,4.2-4.35,4.2H126.7V96.9h-2q-53.53-.18-107.07-.39a4.78,4.78,0,0,1-2.87-1.11,49.31,49.31,0,0,1-12-15.53C-2.42,69.1-.26,59.37,9.11,52a85.58,85.58,0,0,1,9.35-6,2.4,2.4,0,0,0,1.46-2.16,34.78,34.78,0,0,1,3.14-13.13c3.4-6.92,9.07-10.43,16.68-10.95,1.3-.08,2.61,0,3.91,0,3.41,0,6.07.43,7.33,4.64,1.4,4.69,5.26,7.77,9.77,9.78a3.22,3.22,0,0,0,2.11.23,44,44,0,0,1-4.66-4.6A29.47,29.47,0,0,1,54.08,23a8.64,8.64,0,0,1-.19-5.39C56.53,9.13,68.37.36,77.25,0A22,22,0,0,1,93.52,6.35c3.4,3.16,6.34,6.81,9.46,10.22-1.63,3-3,5.54-4.45,8.1l-.2.36Z"/><path class="cls-2" d="M456.64,40V26.92l9.61-.88V61.82c-2.5,0-5.14.1-7.77-.08-.48,0-.89-1.22-1.46-2.06-3.12,2.69-6.92,3.22-11,2.08a10.59,10.59,0,0,1-6.1-4.63c-3.37-5.19-2.44-13.27,2-17.23C446.08,36.23,452,36.2,456.64,40Zm-4.75,14.38a4.83,4.83,0,0,0,4.95-4.68,4.88,4.88,0,0,0-4.66-5.18,4.7,4.7,0,0,0-4.82,4.78A4.8,4.8,0,0,0,451.89,54.42Z"/><path class="cls-3" d="M358.93,49.87c1.3,1.87,2.75,3.77,3.95,5.81.26.43-.18,1.57-.64,2.07-3.7,3.94-8.41,5.16-13.66,4.93a17.29,17.29,0,0,1-16.44-14.87c-1.21-10,3.67-18.39,12.27-20.7,6.13-1.64,12-.83,17.17,3.13,1.51,1.15,2,2.31.78,4-.72,1-1.25,2.12-1.91,3.17-1.46,2.33-1.48,2.34-3.6.64-2.42-1.93-5.11-3-8.22-2.37-5,1-7.75,6.48-6.08,12.06,1.45,4.86,6.27,7.18,11.19,5.2A42.8,42.8,0,0,0,358.93,49.87Z"/><path class="cls-3" d="M242.57,49.87c1.29,1.84,2.72,3.68,3.87,5.68a2.57,2.57,0,0,1-.6,2.23c-3.75,4-8.56,5.19-13.87,4.88a17.23,17.23,0,0,1-16.21-15.1c-1.09-9.89,3.8-18.22,12.34-20.46,6.28-1.65,12.25-.82,17.48,3.45,1.22,1,1.51,2,.61,3.34s-1.68,2.68-2.44,4.06-1.56,1.63-2.84.46c-2.44-2.24-5.32-3.44-8.69-2.75-5,1-7.71,6.54-6,12.1,1.47,4.85,6.3,7.13,11.22,5.12A41.56,41.56,0,0,0,242.57,49.87Z"/><path class="cls-3" d="M424.85,59.15A16.42,16.42,0,0,1,422,60.71a22.39,22.39,0,0,1-6.08,1.47c-4,.07-6.52-2.11-7.2-6a44.25,44.25,0,0,1,.15-16c.27-1.4.9-2,2.37-1.88a53,53,0,0,0,5.35,0c1.38-.05,1.68.39,1.59,1.81-.23,3.83-.32,7.67-.24,11.5.06,2.49,1.32,3.63,3.33,3.58a4.12,4.12,0,0,0,3.91-4c.08-3.43.07-6.87.1-10.3v-2.6c3,0,5.73-.06,8.46.06.43,0,1.12.89,1.15,1.4.12,1.7,0,3.43,0,5.14,0,5.08,0,10.16.07,15.23,0,1.49-.41,2.19-1.95,2.13-1.09,0-2.2.08-3.29.08C426.05,62.41,426.05,62.4,424.85,59.15Z"/><path class="cls-3" d="M392,62.28c-7.67,0-13.08-5.1-13.11-12.33,0-7.73,5.25-12.86,13.23-12.83,7.79,0,13.08,5.08,13.09,12.53S399.88,62.28,392,62.28Zm4.6-12.48A4.56,4.56,0,0,0,392.08,45a4.73,4.73,0,0,0-.2,9.45A4.53,4.53,0,0,0,396.57,49.8Z"/><path class="cls-4" d="M316.53,62.28c-7.77,0-13.22-5.15-13.18-12.47,0-7.65,5.29-12.7,13.16-12.69s13.13,5,13.16,12.46C329.7,57.17,324.42,62.27,316.53,62.28Zm4-15.44c-2.84-2.87-5.21-3-7.49-.47a31.34,31.34,0,0,1-4.48,4c-1,.71-2,1.46-1.38,2.57a3.51,3.51,0,0,0,2.56,1.44c4.45.14,8.91.09,13.37,0a3.84,3.84,0,0,0,4.14-4.21,3.89,3.89,0,0,0-4.33-3.85A14.71,14.71,0,0,0,320.48,46.84Z"/><path class="cls-2" d="M365.5,27.33h10.41c-.13,2.08-.34,4-.36,6-.09,8.79-.19,17.58-.13,26.37,0,1.75-.48,2.35-2.15,2.29-1.85-.07-3.71-.07-5.56,0-1.44,0-1.84-.59-1.83-2,.09-7.07.13-14.15.08-21.23C365.93,35,365.66,31.26,365.5,27.33Z"/><path class="cls-5" d="M273.1,40c2.39-.72,4.58-1.47,6.81-2,1.4-.33,1.95.37,1.79,1.87a53.54,53.54,0,0,0-.25,5.94c0,1.18-.26,1.85-1.59,1.74-7.37-.61-6,1.55-6,6.29,0,2.59,0,5.18,0,8-2.79,0-5.57.06-8.34-.08-.36,0-.94-1.05-.95-1.63-.08-3.29.08-6.59,0-9.87-.14-3.74-.47-7.48-.74-11.45l8.68-1.31Z"/><path class="cls-5" d="M294,61.87c-2.76,0-5.48.08-8.2-.08-.4,0-1-1.11-1.07-1.72-.09-4,.07-8-.07-11.92-.1-3.06-.52-6.1-.81-9.32l8.82-1.3c.25,1,.45,1.85.61,2.47,2.28-.7,4.45-1.47,6.68-2,1.45-.36,2.1.29,1.91,1.93a54.9,54.9,0,0,0-.25,6.15c0,1.07-.41,1.53-1.45,1.45h-.41c-5.85,0-5.83,0-5.76,5.77C294.07,56.06,294,58.85,294,61.87Z"/><path class="cls-6" d="M259.26,61.75c-3.07,0-5.86.07-8.64-.08-.34,0-.87-1.23-.88-1.89-.1-5.7-.07-11.4-.13-17.1,0-1.29-.22-2.58-.35-4.06h10Z"/><path class="cls-7" d="M213.66,87.52h3.1c1.36,5,5.63,6.08,10.27,4.79a3.48,3.48,0,0,0,2.9-3.32c0-1.88-1.33-2.65-2.81-3.09-2.62-.8-5.39-1.18-7.9-2.23a8.65,8.65,0,0,1-3.87-3.36c-1.32-2.23-.14-5.35,2.34-6.7a11.63,11.63,0,0,1,11.79.13c1.74,1,2.45,2.42,2.78,4.9h-2.81a7,7,0,0,0-9.89-2.7,3.7,3.7,0,0,0-1.47,2.65,3.12,3.12,0,0,0,1.76,2.2c2,.76,4.1,1.09,6.13,1.7a19.2,19.2,0,0,1,4.21,1.58,5.6,5.6,0,0,1,1.3,8.82c-3.62,4.13-12.94,3.68-16-.87A25.65,25.65,0,0,1,213.66,87.52Z"/><path class="cls-6" d="M333.62,90.4l2.58-.48c1.85,2.7,4.3,3.65,7,2.54.71-.3,1.18-1.16,1.77-1.77-.6-.54-1.12-1.33-1.82-1.58-1.93-.69-4-1.09-5.91-1.71a4.07,4.07,0,0,1-3.11-4.12,4.34,4.34,0,0,1,3-4.27,8.38,8.38,0,0,1,7.56.3c1.23.7,2,2.19,3.35,3.74l-3.22.66c-1.72-2.4-3.89-3.16-6.4-2.14-.55.23-1.38,1-1.3,1.3a2.39,2.39,0,0,0,1.35,1.5c2.15.71,4.4,1.1,6.53,1.84A4.3,4.3,0,0,1,347,93.07c-2,2.67-5,2.87-8,2.46S334.29,93.53,333.62,90.4Z"/><path class="cls-8" d="M297,87.08c0-5.39,3-8.69,8-8.73s8.23,3.3,8.22,8.51c0,5.52-3,8.8-8.1,8.82S297,92.44,297,87.08Zm3,0c0,3.51,2,5.68,5.11,5.68s5.18-2.28,5.15-5.87-2-5.67-5.13-5.68S299.91,83.46,299.94,87.11Z"/><path class="cls-8" d="M252.11,87c0,5.48-3.11,8.73-8.23,8.7-5,0-8-3.32-8-8.72S239,78.35,244,78.35,252.14,81.73,252.11,87Zm-13.24,0c0,3.54,1.89,5.73,5,5.78s5.25-2.19,5.26-5.77-2-5.82-5.24-5.77S238.87,83.47,238.87,87Z"/><path class="cls-9" d="M319.2,95.22h-2.94V78.9h2.46l.31,1.57a3,3,0,0,0,.69-.39,6.69,6.69,0,0,1,5.52-1.71c3.11.29,4.84,1.92,4.95,5,.15,3.9,0,7.8,0,11.8h-3c0-3.11,0-6.24,0-9.37s-.94-4.46-3.42-4.54c-2.74-.09-4.47,1.41-4.6,4.36C319.09,88.75,319.2,91.9,319.2,95.22Z"/><path class="cls-5" d="M274,78.81h2.83V95.13h-2.38c0-.68-.07-1.34-.11-2a19.91,19.91,0,0,1-3.77,2.22,5.52,5.52,0,0,1-7.63-5.2c-.12-3,0-6,0-9.06V78.92h3c0,3.13,0,6.27,0,9.42s1.08,4.45,3.56,4.45c2.73,0,4.44-1.66,4.51-4.53C274,85.18,274,82.1,274,78.81Z"/><path class="cls-10" d="M139.73,84.76v10.7H129.36V84.76Z"/><path class="cls-10" d="M117.85,27.4V38.18h-10.4V27.4Z"/><path class="cls-10" d="M120.64,27.4h10.41V38.11H120.64Z"/><path class="cls-10" d="M151.2,38.61H140.93V27.87H151.2Z"/><path class="cls-10" d="M142.94,64.49H153.3V75.28H142.94Z"/><path class="cls-11" d="M154.51,27.77h10.33V38.56H154.51Z"/><path class="cls-12" d="M164.86,52.22H154.49V41.43h10.37Z"/><path class="cls-11" d="M142.9,95.48V84.74h10.4V95.48Z"/><path class="cls-10" d="M117.83,56.75H107.45V46h10.38Z"/><path class="cls-12" d="M120.63,56.69V46H131V56.69Z"/><path class="cls-10" d="M144.69,46V56.71h-10.4V46Z"/><path class="cls-10" d="M115.69,75.23V64.58H126.1V75.23Z"/><path class="cls-12" d="M129.37,64.49h10.27V75.24H129.37Z"/><path class="cls-11" d="M160.26,75.3V64.51h10.39V75.3Z"/><path class="cls-12" d="M173.86,88.85V78.17h10.35V88.85Z"/><path class="cls-10" d="M184.2,75.31H173.93V64.57H184.2Z"/><path class="cls-11" d="M187.54,69.84h10.3V80.61h-10.3Z"/><path class="cls-9" d="M281.4,81.77l-1.82-.22V79l2-.38c.21-2.07-.69-4.9,3-5.22v5.3l2.87.18v2.81h-2.78c0,3.32-.16,6.48.1,9.6.07.76,1.49,1.41,2.28,2.11l.42-.39c.14.72.28,1.44.42,2.14-3.67,1.59-6.13.17-6.23-3.59-.08-3.16-.06-6.32-.09-9.48C281.57,82,281.51,81.94,281.4,81.77Z"/><path class="cls-6" d="M254.65,36.71c-3.14,0-5.27-1.7-5.31-4.25s2.24-4.42,5.2-4.42,5.09,1.88,5.07,4.49S257.91,36.7,254.65,36.71Z"/><path class="cls-6" d="M255.56,72.63h2.68V95.14h-2.68Z"/><path class="cls-13" d="M293.47,95.21H290.7V78.87h2.77Z"/><path class="cls-14" d="M155.85,106.41l.61.11"/><path class="cls-13" d="M290.73,72.62h2.72v2.74h-2.72Z"/><path class="cls-15" d="M98.81,25l-.48,0,.2-.36Z"/></g></g></svg>